<svg xmlns="http://www.w3.org/2000/svg" baseProfile="full" version="1.1" style="fill: none;" width="435px" height="435px"><path style="stroke-width: 15px; stroke-linecap: round; stroke-linejoin: round; stroke: rgb(106, 106, 106); fill: none;" d=""/><path style="stroke-width: 100px; stroke-linecap: round; stroke-linejoin: round; stroke: rgb(255, 255, 255); fill: none;" d="M60,180 L60,180 L150,90 Q285,15 225,135 Q150,210 105,270 Q45,345 105,360 Q180,315 255,225 Q315,105 375,150 Q390,180 345,255 Q195,360 285,375 Q345,360 375,315 "/><path style="stroke-width: 24px; stroke-linecap: round; stroke-linejoin: miter; stroke: rgb(0, 0, 0); fill: none;" d="M60,180 L60,180 L120,120 Q195,45 225,75 Q270,105 195,180 L195,180 L135,240 Q45,315 90,360 Q135,390 225,270 M300,165 L300,165 L225,270 M300,165 Q330,135 360,150 Q405,180 315,285 Q255,360 285,375 Q315,390 375,315 "/></svg>